<svg width="199" height="40" viewBox="0 0 199 40" fill="none" xmlns="http://www.w3.org/2000/svg">
<mask id="mask0_23_856" style="mask-type:luminance" maskUnits="userSpaceOnUse" x="0" y="0" width="40" height="40">
<path d="M16.8451 21.8093L10.6348 36.9496C10.5942 37.0308 10.5942 37.0714 10.5942 37.1526C10.5942 37.3555 10.7159 37.5179 10.8783 37.6397H10.9189C16.358 40.3186 22.7714 40.3186 28.2105 37.6397C28.3729 37.5585 28.4947 37.3555 28.4947 37.1526C28.4947 37.0714 28.4947 37.0308 28.4541 36.9496L22.2843 22.0122V21.9717C21.6754 20.4292 19.93 19.6986 18.4282 20.3074C17.7381 20.5916 17.1699 21.1192 16.8451 21.8093ZM0.527679 20.1451C0.243544 20.1451 0 20.3886 0 20.6728C0.121772 25.4219 1.98894 29.9274 5.19561 33.4182C5.31738 33.54 5.43915 33.5806 5.60151 33.5806C5.80447 33.5806 6.00742 33.4588 6.0886 33.2559L11.1624 20.8757C11.2842 20.5916 11.1218 20.2668 10.8377 20.1857C10.7971 20.1451 10.7159 20.1451 10.6348 20.1451H0.527679ZM28.3729 20.1451C28.0887 20.1451 27.8452 20.3886 27.8452 20.6728C27.8452 20.7539 27.8452 20.8351 27.8858 20.8757L32.9596 33.2559C33.0814 33.54 33.4061 33.6618 33.6903 33.54C33.7714 33.4994 33.812 33.4588 33.8526 33.4182C37.0999 29.968 38.9265 25.4219 39.0888 20.6728V20.6322C39.0888 20.348 38.8453 20.1045 38.5611 20.1045L28.3729 20.1451ZM16.1145 0.905093C9.09231 2.12281 3.32844 7.07488 1.01477 13.8129C1.01477 13.8535 0.974176 13.9347 0.974176 13.9753C0.974176 14.2594 1.21772 14.503 1.50185 14.503H13.4355C13.6385 14.503 13.8008 14.3406 13.882 14.1782L14.8156 11.8646C16.0333 8.82027 16.6422 5.57302 16.6828 2.28518V1.39218C16.6828 1.10805 16.4392 0.864502 16.1551 0.864502L16.1145 0.905093ZM22.2843 1.39218V2.32577C22.3249 5.61361 22.9337 8.86087 24.1515 11.9052L25.085 14.1782C25.1662 14.3406 25.3286 14.4624 25.4909 14.503H25.5721H37.5058C37.7899 14.503 38.0335 14.2594 38.0335 13.9753C38.0335 13.9347 38.0335 13.8535 37.9929 13.8129C35.7198 7.07488 29.9559 2.12281 22.9337 0.864502H22.8525C22.5684 0.864502 22.3249 1.10805 22.2843 1.39218Z" fill="white"/>
</mask>
<g mask="url(#mask0_23_856)">
<path d="M39.0482 0.864502H0V39.6692H39.0482V0.864502Z" fill="url(#paint0_linear_23_856)"/>
</g>
<path d="M55.5619 5.58023H80.2862V2.72388H55.5619V5.58023Z" fill="#005BAC"/>
<path d="M81.0087 24.73C81.0087 24.5289 80.8883 24.3277 80.6876 24.2875C80.6876 24.2875 80.6074 24.2875 80.5672 24.2875H72.7405C72.2187 24.2875 71.7772 23.9254 71.6167 23.4427V11.2931H81.0087V8.43677H55V11.1322H63.2281C63.2281 11.1322 56.6858 23.2817 55.281 26.1381V26.299C55.281 26.5002 55.4014 26.7013 55.6021 26.7416C55.6021 26.7416 55.6823 26.7416 55.7225 26.7416H58.2912L66.6798 11.0115H68.8071V22.7185C68.8071 24.891 70.4929 26.6611 72.6602 26.7013H78.6407C79.8046 26.8622 80.8883 26.0576 81.0489 24.891C81.0489 24.8105 81.0489 24.7703 81.0489 24.6898L81.0087 24.73Z" fill="#005BAC"/>
<path d="M116.008 8.83915C116.008 8.638 115.888 8.43685 115.687 8.39662C115.687 8.39662 115.607 8.39662 115.567 8.39662H103.325V2H100.355V8.43685H89.1165V11.1323H99.5119C99.5119 11.1323 90.8423 23.1209 88.7151 26.0979V26.3796C88.7151 26.5807 88.8355 26.7819 89.0362 26.8221C89.0362 26.8221 89.1165 26.8221 89.1566 26.8221H91.7254L100.957 13.9886C101.238 13.4656 101.92 13.3047 102.402 13.5863C102.562 13.6668 102.683 13.8277 102.803 13.9886L112.035 26.6612H114.603C114.804 26.6612 115.005 26.5405 115.045 26.3393C115.045 26.3393 115.045 26.2589 115.045 26.2186C115.045 26.2186 114.991 26.1248 114.884 25.937C112.757 22.96 104.208 11.092 104.088 10.9714H113.038C114.363 11.2932 115.647 10.4484 115.968 9.16099C115.968 9.0403 116.008 8.95984 116.008 8.83915Z" fill="#005BAC"/>
<path d="M183.438 11.9769L179.184 5.70095C179.184 5.70095 178.903 5.33888 178.742 5.13773L178.301 4.41358C177.98 3.89059 177.538 3.44805 177.016 3.12621C176.334 2.80437 175.611 2.60322 174.889 2.56299H160.52V4.85612C160.359 5.13773 156.948 10.0056 155.704 11.6953C155.704 11.6953 155.543 11.8562 155.543 11.9769C155.543 12.178 155.663 12.3792 155.864 12.4194C155.864 12.4194 155.944 12.4194 155.984 12.4194H158.553C158.794 12.0976 159.035 11.7757 159.276 11.4137H168.387V14.8332H158.714V17.408H168.387V23.9655H164.815C164.654 23.6839 163.089 20.9885 162.406 19.5402H159.838C159.637 19.5402 159.436 19.6609 159.396 19.862C159.396 19.862 159.396 19.9425 159.396 19.9827V20.2643L161.523 23.9655H156.827V26.5402H180.147C181.431 26.5402 182.555 25.6552 182.836 24.408V24.2471C182.836 24.046 182.716 23.8448 182.515 23.8046C182.515 23.8046 182.435 23.8046 182.395 23.8046H178.14L180.267 20.1034V19.8218C180.267 19.6206 180.147 19.4195 179.946 19.3792C179.946 19.3792 179.866 19.3792 179.826 19.3792H177.257L174.849 23.8046H171.437V17.247H180.95V14.6723H171.437V11.2527H180.267C180.428 11.6148 180.669 11.9769 180.99 12.2585H183.559C183.759 12.2585 183.96 12.1378 184 11.9366C184 11.9366 184 11.8562 184 11.816C183.706 12.0037 183.518 12.0573 183.438 11.9769ZM160.961 8.99984C160.961 8.99984 163.53 5.41934 163.53 5.29865H175.491L175.652 5.45957C175.652 5.45957 176.093 6.02279 178.22 9.04007H161.002L160.961 8.99984Z" fill="#005BAC"/>
<path d="M132.545 13.2644H123.433V15.9598H132.545V13.2644Z" fill="#005BAC"/>
<path d="M132.545 9H123.433V11.6954H132.545V9Z" fill="#005BAC"/>
<path d="M132.545 4.73539H129.414V2.72388H126.564V4.73539H123.433V7.43082H132.545V4.73539Z" fill="#005BAC"/>
<path d="M150.044 24.6897H145.348L146.472 21.7127H147.596C148.72 21.4713 149.562 20.4655 149.603 19.2989V16.7241C149.603 15.4368 148.599 14.3505 147.315 14.3103H134.391V21.8736H136.799L137.923 24.8506H134.351V27.1438H148.158C149.241 27.1438 150.205 26.3794 150.445 25.2932C150.445 24.8506 150.285 24.7299 150.004 24.7299L150.044 24.6897ZM146.632 16.8448V18.8563H136.959V16.8448H146.632ZM139.649 21.5518H143.502L142.378 24.5288H140.652L139.649 21.5518Z" fill="#005BAC"/>
<path d="M136.679 12.8217L137.12 12.2585H146.913L147.355 12.8217H149.924L147.515 9.1205H149.924V6.42507H145.669L145.107 5.58023H149.924V2.72388H145.228C143.823 2.72388 142.659 3.89056 142.659 5.33885C142.659 5.82161 142.819 6.30438 143.06 6.70668L145.067 9.40211H139.087L141.094 6.54576C141.896 5.37908 141.615 3.8101 140.451 3.00549C140.01 2.68365 139.488 2.52273 138.966 2.56296H134.27V5.41931H139.087L138.525 6.26415H134.27V8.95958H136.679L134.11 12.8217H136.679Z" fill="#005BAC"/>
<path d="M130.538 17.8506H123.433V26.9829H130.538C131.942 26.8622 133.066 25.6955 133.106 24.2874V20.5862C133.106 19.1782 131.983 17.9713 130.538 17.8908V17.8506ZM126.123 24.2472V20.546H130.377V24.2472H126.123Z" fill="#005BAC"/>
<path d="M114.825 37.0638C114.02 37.0638 113.197 36.8222 112.62 36.413C112.012 35.9882 111.678 35.4037 111.678 34.7645C111.678 33.5331 113.087 32.5315 114.813 32.5315C115.931 32.5315 117.026 33.0069 117.536 33.7162V33.724L117.544 33.7318C117.555 33.7513 117.563 33.7786 117.563 33.802C117.563 33.8721 117.516 33.9306 117.445 33.9423C117.438 33.9423 117.43 33.9423 117.418 33.9423H116.241C116.241 33.9423 116.229 33.9422 116.225 33.9345C115.888 33.5486 115.421 33.3616 114.789 33.3616C113.714 33.3616 112.934 33.9578 112.934 34.7762C112.934 35.5946 113.746 36.2221 114.864 36.2221C115.394 36.2221 115.915 36.0155 116.221 35.6804C116.221 35.6804 116.229 35.6726 116.237 35.6726H117.402C117.402 35.6726 117.418 35.6726 117.422 35.6726C117.493 35.6843 117.547 35.7427 117.547 35.8129C117.547 35.844 117.54 35.8713 117.524 35.8947C117.524 35.8947 117.524 35.8947 117.524 35.8986C116.994 36.6001 115.939 37.0521 114.829 37.0521L114.825 37.0638Z" fill="#005BAC"/>
<path d="M146.83 37.0718C146.536 37.0718 146.234 37.0562 145.924 37.025C145.618 36.9977 145.304 36.9549 144.99 36.9081C144.982 36.9081 144.974 36.9003 144.974 36.8886V36.2768V36.2651C144.974 36.1872 145.037 36.1209 145.12 36.1209C145.131 36.1209 145.143 36.1209 145.159 36.1248C145.159 36.1248 145.163 36.1248 145.167 36.1248C145.375 36.191 145.587 36.2456 145.791 36.2807C146.057 36.3274 146.336 36.3547 146.614 36.3547C147.022 36.3547 147.36 36.3041 147.615 36.2027C147.874 36.1014 148.003 35.9689 148.003 35.813C148.003 35.626 147.646 35.3882 146.944 35.1038C146.85 35.0648 146.779 35.0375 146.728 35.0141C146.038 34.7452 145.567 34.5192 145.335 34.3438C145.1 34.1645 144.978 33.9658 144.978 33.7476C144.978 33.3851 145.253 33.0812 145.794 32.8473C146.336 32.6135 147.05 32.4966 147.917 32.4966C148.203 32.4966 148.486 32.5122 148.764 32.5395C149.035 32.5667 149.306 32.6135 149.572 32.6681C149.58 32.6681 149.588 32.6758 149.588 32.6875V33.276C149.588 33.276 149.588 33.276 149.588 33.2799C149.588 33.3578 149.521 33.4241 149.443 33.4241C149.431 33.4241 149.416 33.4241 149.4 33.4163H149.396C149.239 33.3578 149.078 33.3111 148.906 33.276C148.658 33.2292 148.372 33.202 148.054 33.202C147.697 33.202 147.399 33.2487 147.168 33.3423C146.936 33.4358 146.818 33.5605 146.818 33.7086C146.818 33.9034 147.16 34.1334 147.834 34.3945C147.984 34.4529 148.074 34.488 148.133 34.5075C148.772 34.753 149.219 34.979 149.467 35.1739C149.714 35.3688 149.839 35.5909 149.839 35.8286C149.839 36.1988 149.565 36.5028 149.019 36.725C148.474 36.9471 147.74 37.0601 146.83 37.0601V37.0718Z" fill="#005BAC"/>
<path d="M71.446 37.0678C70.579 37.0678 69.81 36.8105 69.2725 36.3468C68.8096 35.9376 68.5507 35.3881 68.5507 34.8035C68.5507 34.18 68.7782 33.7123 69.2921 33.2876C69.8767 32.7926 70.6143 32.5393 71.4891 32.5393C72.2973 32.5393 72.9956 32.8043 73.4586 33.2798L73.6273 33.4551V32.703C73.6273 32.703 73.6351 32.6835 73.6469 32.6835H74.7493C74.7493 32.6835 74.7689 32.6913 74.7689 32.703V36.908C74.7689 36.908 74.7611 36.9275 74.7493 36.9275H73.6469C73.6469 36.9275 73.6273 36.9197 73.6273 36.908V36.8729C73.6116 36.6936 73.4664 36.5572 73.2938 36.5572C73.235 36.5572 73.18 36.5728 73.129 36.604C73.129 36.604 73.1212 36.604 73.1173 36.604C72.67 36.8924 72.0266 37.0717 71.4421 37.0717L71.446 37.0678ZM71.7324 36.2338C72.3522 36.2338 72.8779 36.0389 73.2193 35.6882C73.4586 35.4388 73.5841 35.1309 73.5841 34.7957C73.5841 34.4606 73.4586 34.1644 73.2232 33.9189C72.8897 33.572 72.3522 33.3733 71.7559 33.3733H71.7088C71.0772 33.3733 70.5358 33.572 70.1866 33.9345C69.9434 34.1878 69.8139 34.4996 69.8139 34.8425C69.8139 35.1387 69.9355 35.4193 70.1631 35.657C70.5123 36.0155 71.085 36.2338 71.6931 36.2338H71.7363H71.7324Z" fill="#005BAC"/>
<path d="M88.5746 37.0678C87.7076 37.0678 86.9387 36.8105 86.4012 36.3468C85.9343 35.9376 85.6793 35.3881 85.6793 34.8035C85.6793 34.18 85.9069 33.7123 86.4208 33.2876C87.0054 32.7926 87.7429 32.5393 88.6178 32.5393C89.426 32.5393 90.1243 32.8043 90.5872 33.2798L90.7559 33.4551V32.703C90.7559 32.703 90.7638 32.6835 90.7756 32.6835H91.878C91.878 32.6835 91.8976 32.6913 91.8976 32.703V36.908C91.8976 36.908 91.8897 36.9275 91.878 36.9275H90.7756C90.7756 36.9275 90.7559 36.9197 90.7559 36.908V36.8729C90.7402 36.6936 90.5951 36.5572 90.4225 36.5572C90.3636 36.5572 90.3087 36.5728 90.2577 36.604H90.2498C89.8026 36.8924 89.1592 37.0717 88.5746 37.0717V37.0678ZM88.861 36.2338C89.4809 36.2338 90.0066 36.0389 90.3479 35.6882C90.5872 35.4388 90.7128 35.1309 90.7128 34.7957C90.7128 34.4606 90.5872 34.1644 90.3518 33.9189C90.0184 33.572 89.4809 33.3733 88.8846 33.3733H88.8375C88.2059 33.3733 87.6645 33.572 87.3153 33.9345C87.0721 34.1878 86.9426 34.4996 86.9426 34.8425C86.9426 35.1387 87.0642 35.4193 87.2878 35.657C87.637 36.0155 88.2098 36.2338 88.8179 36.2338H88.861Z" fill="#005BAC"/>
<path d="M64.5373 37.0678C63.7723 37.0678 63.1799 36.8847 62.6188 36.4677C62.2344 36.1754 62.0107 35.6727 62.0107 35.0881V32.6953C62.0107 32.6953 62.0186 32.6758 62.0304 32.6758H63.2387C63.2387 32.6758 63.2583 32.6836 63.2583 32.6953V34.7568C63.2583 35.1037 63.2858 35.4622 63.4898 35.7233C63.7291 36.039 64.1999 36.2261 64.7491 36.2261C66.2753 36.2261 66.2753 35.1193 66.2753 34.7568V32.6953C66.2753 32.6953 66.2831 32.6758 66.2949 32.6758H67.5032C67.5032 32.6758 67.5228 32.6836 67.5228 32.6953V36.9003C67.5228 36.9003 67.515 36.9197 67.5032 36.9197H66.4322C66.4322 36.9197 66.4126 36.9119 66.4126 36.9003C66.4126 36.7405 66.287 36.608 66.134 36.608C66.0869 36.608 66.0399 36.6236 65.9967 36.6469C65.522 36.9899 64.9453 37.0639 64.5451 37.0639L64.5373 37.0678Z" fill="#005BAC"/>
<path d="M80.234 36.9236C80.234 36.9236 80.2143 36.9158 80.2143 36.9041V34.8425C80.2143 34.4956 80.1869 34.1371 79.9829 33.876C79.7436 33.5603 79.2728 33.3733 78.7235 33.3733C77.1974 33.3733 77.1974 34.4801 77.1974 34.8425V36.9041C77.1974 36.9041 77.1896 36.9236 77.1778 36.9236H75.9694C75.9694 36.9236 75.9498 36.9158 75.9498 36.9041V32.6991C75.9498 32.6991 75.9577 32.6796 75.9694 32.6796H77.0405C77.0405 32.6796 77.0601 32.6874 77.0601 32.6991C77.0601 32.8589 77.1856 32.9914 77.3386 32.9914C77.3896 32.9914 77.4367 32.9758 77.4799 32.9524C77.9546 32.6094 78.5313 32.5354 78.9315 32.5354C79.6965 32.5354 80.2889 32.7186 80.8499 33.1317C81.2344 33.4239 81.458 33.9267 81.458 34.5112V36.9041C81.458 36.9041 81.4501 36.9236 81.4384 36.9236H80.23H80.234Z" fill="#005BAC"/>
<path d="M83.0704 36.9236C83.0704 36.9236 83.0508 36.9158 83.0508 36.9041V33.4201H82.3564C82.3564 33.4201 82.3368 33.4123 82.3368 33.4006V32.6991C82.3368 32.6991 82.3446 32.6796 82.3564 32.6796H83.0508V31.2143C83.0508 31.2143 83.0587 31.1948 83.0704 31.1948H84.2905C84.2905 31.1948 84.3102 31.2026 84.3102 31.2143V32.6796H85.1693C85.1693 32.6796 85.189 32.6874 85.189 32.6991V33.4006C85.189 33.4006 85.1811 33.4201 85.1693 33.4201H84.3102V36.9041C84.3102 36.9041 84.3023 36.9236 84.2905 36.9236H83.0704Z" fill="#005BAC"/>
<path d="M132.503 36.9236C132.503 36.9236 132.483 36.9158 132.483 36.9041V33.4201H131.789C131.789 33.4201 131.769 33.4123 131.769 33.4006V32.6991C131.769 32.6991 131.777 32.6796 131.789 32.6796H132.483V31.2143C132.483 31.2143 132.491 31.1948 132.503 31.1948H133.723C133.723 31.1948 133.742 31.2026 133.742 31.2143V32.6796H134.602C134.602 32.6796 134.621 32.6874 134.621 32.6991V33.4006C134.621 33.4006 134.613 33.4201 134.602 33.4201H133.742V36.9041C133.742 36.9041 133.735 36.9236 133.723 36.9236H132.503Z" fill="#005BAC"/>
<path d="M57.7619 36.9236C57.7619 36.9236 57.7423 36.9158 57.7423 36.9041V34.7997L55.0275 31.4287C55.0275 31.4287 55.0275 31.4248 55.0235 31.4209C55.0235 31.4209 55.0157 31.4014 55.0118 31.3975C55.0039 31.378 55 31.3585 55 31.339C55 31.2689 55.051 31.2104 55.1216 31.1987C55.1295 31.1987 55.1334 31.1987 55.1412 31.1987H56.4202C56.4202 31.1987 56.432 31.1987 56.4359 31.2065C56.5183 31.3156 57.3029 32.2782 57.9738 33.1044C57.9738 33.1044 57.9738 33.1044 57.9777 33.1044C58.1032 33.2642 58.2876 33.3577 58.4916 33.3577C58.6682 33.3577 58.833 33.2837 58.9585 33.1512C59.1821 32.8784 60.4297 31.3429 60.5395 31.2065C60.5395 31.2026 60.5474 31.1987 60.5552 31.1987H61.8224C61.8224 31.1987 61.8381 31.1987 61.842 31.1987C61.9127 31.2104 61.9676 31.2689 61.9676 31.339C61.9676 31.3624 61.9597 31.3858 61.948 31.4092C61.948 31.417 61.9401 31.4209 61.9401 31.4248V31.4287L59.2253 34.7997V36.9041C59.2253 36.9041 59.2174 36.9236 59.2057 36.9236H57.7698H57.7619Z" fill="#005BAC"/>
<path d="M125.449 36.9236C125.449 36.9236 125.429 36.9158 125.429 36.9041V32.703C125.429 32.703 125.437 32.6835 125.449 32.6835H126.641C126.641 32.6835 126.661 32.6913 126.661 32.703V33.0732H126.681C127.002 32.703 127.391 32.5432 127.979 32.5432H128.07C128.07 32.5432 128.089 32.551 128.089 32.5627V33.5292C128.089 33.5292 128.081 33.5487 128.07 33.5487C127.756 33.5487 127.426 33.6305 127.206 33.7513C126.802 33.9851 126.779 34.293 126.791 34.671V36.908C126.791 36.908 126.783 36.9275 126.771 36.9275H125.449V36.9236Z" fill="#005BAC"/>
<path d="M129.368 32.6836H130.588C130.588 32.6836 130.608 32.6914 130.608 32.7031V36.9081C130.608 36.9081 130.6 36.9276 130.588 36.9276H129.368C129.368 36.9276 129.348 36.9198 129.348 36.9081V32.7031C129.348 32.7031 129.356 32.6836 129.368 32.6836Z" fill="#005BAC"/>
<path d="M135.873 32.6836H137.093C137.093 32.6836 137.112 32.6914 137.112 32.7031V36.9081C137.112 36.9081 137.105 36.9276 137.093 36.9276H135.869C135.869 36.9276 135.849 36.9198 135.849 36.9081V32.7031C135.849 32.7031 135.857 32.6836 135.869 32.6836H135.873Z" fill="#005BAC"/>
<path d="M121.196 37.0717C120.431 37.0717 119.839 36.8886 119.278 36.4716C118.893 36.1793 118.669 35.6766 118.669 35.092V32.6992C118.669 32.6992 118.677 32.6797 118.689 32.6797H119.897C119.897 32.6797 119.917 32.6875 119.917 32.6992V34.7607C119.917 35.1076 119.944 35.4661 120.148 35.7272C120.392 36.0429 120.862 36.23 121.408 36.23C122.938 36.23 122.938 35.1232 122.938 34.7607V32.6992C122.938 32.6992 122.946 32.6797 122.957 32.6797H124.166C124.166 32.6797 124.185 32.6875 124.185 32.6992V36.9042C124.185 36.9042 124.178 36.9236 124.166 36.9236H123.095C123.095 36.9236 123.075 36.9159 123.075 36.9042C123.075 36.7444 122.95 36.6119 122.797 36.6119C122.746 36.6119 122.702 36.6236 122.659 36.6508C122.185 36.9938 121.608 37.0678 121.204 37.0678L121.196 37.0717Z" fill="#005BAC"/>
<path d="M100.387 37.0717C100.019 37.0717 99.6381 37.0483 99.2497 37.0055C98.8417 36.9587 98.4494 36.8807 98.061 36.7716C98.0532 36.7716 98.0492 36.7638 98.0492 36.756V36.1364C98.0492 36.1364 98.0492 36.1364 98.0492 36.1325C98.0492 36.0935 98.0649 36.0546 98.0924 36.0273C98.1199 36 98.1552 35.9844 98.1944 35.9844C98.2062 35.9844 98.214 35.9844 98.2258 35.9844C98.2258 35.9844 98.2258 35.9844 98.2297 35.9844C98.5906 36.074 98.932 36.1481 99.2419 36.1988C99.5989 36.2533 99.9363 36.2845 100.254 36.2845C100.795 36.2845 101.235 36.2143 101.553 36.0701C101.867 35.9299 102.027 35.7428 102.027 35.5129C102.027 35.1777 101.407 34.7841 100.187 34.3398L99.8578 34.2151C99.0653 33.9306 98.5004 33.6617 98.1826 33.4123C97.8609 33.1629 97.7001 32.8784 97.7001 32.5705C97.7001 32.1224 98.0257 31.7405 98.6691 31.4443C99.3086 31.1481 100.113 31 101.054 31C101.466 31 101.87 31.0234 102.255 31.0701C102.663 31.1208 103.036 31.191 103.4 31.2884C103.408 31.2884 103.412 31.2962 103.412 31.304V31.8924C103.412 31.9704 103.349 32.0366 103.267 32.0366C103.255 32.0366 103.244 32.0366 103.232 32.0327C103.232 32.0327 103.232 32.0327 103.228 32.0327C102.941 31.9587 102.655 31.9002 102.377 31.8574C102.047 31.8106 101.717 31.7833 101.396 31.7833C100.835 31.7833 100.376 31.8574 100.038 31.9977C99.7048 32.1419 99.5361 32.3289 99.5361 32.5627C99.5361 32.894 100.191 33.2876 101.482 33.7397L101.506 33.7475C101.592 33.7747 101.757 33.8293 101.765 33.8332C102.53 34.1099 103.075 34.3788 103.397 34.6282C103.718 34.8776 103.879 35.1738 103.879 35.5051C103.879 35.9649 103.546 36.3429 102.89 36.6352C102.239 36.9236 101.392 37.0717 100.376 37.0717H100.387Z" fill="#005BAC"/>
<path d="M107.743 37.0718C106.045 37.0718 104.609 36.0274 104.609 34.7881C104.609 33.5488 106.013 32.4888 107.806 32.4888C109.501 32.4888 110.894 33.5098 110.905 34.7686C110.905 34.8115 110.89 34.8504 110.862 34.8777C110.835 34.905 110.8 34.9206 110.76 34.9206H107.838C107.477 34.9206 107.171 34.6634 107.088 34.3009C107.088 34.2853 107.084 34.2775 107.084 34.2659C107.084 34.1879 107.147 34.1217 107.226 34.1217H109.352C109.034 33.6774 108.418 33.4046 107.736 33.4046C107.284 33.4046 106.782 33.5683 106.461 33.8216C106.115 34.0749 105.935 34.41 105.935 34.7881C105.935 35.5558 106.727 36.1599 107.739 36.1599C108.371 36.1599 108.924 35.9455 109.262 35.5753C109.262 35.5753 109.27 35.5675 109.277 35.5675H110.458C110.541 35.5675 110.603 35.6337 110.603 35.7117C110.603 35.7351 110.599 35.7585 110.588 35.7779C110.588 35.7779 110.588 35.7857 110.58 35.7935C110.042 36.5807 108.956 37.0718 107.743 37.0718Z" fill="#005BAC"/>
<path d="M141.169 37.0718C139.47 37.0718 138.038 36.0274 138.038 34.7881C138.038 33.5488 139.443 32.4888 141.236 32.4888C142.931 32.4888 144.323 33.5098 144.335 34.7686C144.335 34.8115 144.319 34.8504 144.292 34.8777C144.264 34.905 144.229 34.9206 144.19 34.9206H141.263C140.902 34.9206 140.596 34.6634 140.514 34.3009C140.514 34.2853 140.51 34.2775 140.51 34.2659C140.51 34.1879 140.573 34.1217 140.651 34.1217H142.778C142.46 33.6774 141.844 33.4046 141.161 33.4046C140.71 33.4046 140.208 33.5683 139.886 33.8216C139.541 34.0749 139.36 34.41 139.36 34.7881C139.36 35.5558 140.153 36.1599 141.161 36.1599C141.793 36.1599 142.346 35.9455 142.683 35.5753C142.683 35.5753 142.691 35.5675 142.699 35.5675H143.88C143.962 35.5675 144.029 35.6337 144.029 35.7117C144.029 35.7351 144.021 35.7585 144.009 35.7779C144.009 35.7779 144.009 35.7857 144.002 35.7935C143.464 36.5807 142.377 37.0718 141.165 37.0718H141.169Z" fill="#005BAC"/>
<path d="M161.772 32.5334H163.034C163.034 32.5334 163.05 32.5335 163.05 32.5491V36.9152C163.05 36.9152 163.05 36.9308 163.034 36.9308H161.772C161.772 36.9308 161.756 36.9308 161.756 36.9152V32.5491C161.756 32.5491 161.756 32.5334 161.772 32.5334Z" fill="#005BAC"/>
<path d="M188.781 37.1029C187.944 37.1029 187.091 36.8525 186.492 36.43C185.86 35.9918 185.513 35.3815 185.513 34.7243C185.513 33.441 186.981 32.4082 188.781 32.4082C189.949 32.4082 191.085 32.909 191.622 33.6445C191.622 33.6758 191.638 33.6914 191.638 33.7227C191.638 33.7853 191.59 33.8479 191.511 33.8636H191.496H190.264C189.917 33.4567 189.428 33.2689 188.765 33.2689C187.644 33.2689 186.839 33.8792 186.839 34.7399C186.839 35.6006 187.676 36.2422 188.844 36.2422C189.396 36.2422 189.933 36.0231 190.264 35.6789H191.511C191.511 35.6789 191.638 35.7571 191.638 35.8353C191.638 35.8666 191.638 35.8979 191.606 35.9136C191.054 36.6491 189.949 37.1186 188.796 37.1186L188.781 37.1029Z" fill="#005BAC"/>
<path d="M174.1 37.103C173.201 37.103 172.396 36.8369 171.843 36.3518C171.354 35.9293 171.085 35.3503 171.085 34.74C171.085 34.0983 171.322 33.6132 171.859 33.1594C172.474 32.643 173.232 32.377 174.148 32.377C174.984 32.377 175.71 32.6586 176.2 33.1438L176.373 33.3315V32.5491V32.5334H177.526C177.526 32.5334 177.542 32.5334 177.542 32.5491V36.9152C177.542 36.9152 177.542 36.9308 177.526 36.9308H176.373C176.373 36.9308 176.358 36.9308 176.358 36.9152V36.8839C176.358 36.6961 176.184 36.5553 176.01 36.5553C175.947 36.5553 175.884 36.5553 175.837 36.6022C175.363 36.8995 174.7 37.0873 174.085 37.0873L174.1 37.103ZM174.4 36.2423C175.047 36.2423 175.6 36.0388 175.947 35.6789C176.2 35.4129 176.326 35.0999 176.326 34.7556C176.326 34.4113 176.2 34.0983 175.947 33.848C175.6 33.488 175.047 33.2846 174.416 33.2846H174.369C173.706 33.2846 173.153 33.488 172.774 33.8636C172.522 34.1296 172.38 34.4583 172.38 34.8026C172.38 35.1155 172.506 35.3972 172.743 35.6476C173.106 36.0232 173.706 36.2423 174.337 36.2423H174.384H174.4Z" fill="#005BAC"/>
<path d="M168.844 36.9467C168.844 36.9467 168.828 36.9467 168.828 36.9311V34.7871C168.828 34.4272 168.796 34.0516 168.591 33.7856C168.339 33.457 167.849 33.2692 167.281 33.2692C165.687 33.2692 165.687 34.4116 165.687 34.8028V36.9467C165.687 36.9467 165.687 36.9624 165.671 36.9624H164.424C164.424 36.9624 164.408 36.9623 164.408 36.9467V32.5806V32.565H165.529C165.529 32.565 165.545 32.565 165.545 32.5806C165.545 32.7528 165.671 32.8779 165.829 32.8779C165.876 32.8779 165.923 32.8779 165.987 32.831C166.476 32.4711 167.076 32.3928 167.502 32.3928C168.291 32.3928 168.907 32.5806 169.491 33.0188C169.901 33.3161 170.122 33.8482 170.122 34.4585V36.9467C170.122 36.9467 170.122 36.9624 170.107 36.9624H168.86L168.844 36.9467Z" fill="#005BAC"/>
<path d="M183.303 36.9467C183.303 36.9467 183.287 36.9467 183.287 36.9311V34.7871C183.287 34.4272 183.256 34.0516 183.05 33.7856C182.798 33.457 182.309 33.2692 181.74 33.2692C180.146 33.2692 180.146 34.4116 180.146 34.8028V36.9467C180.146 36.9467 180.146 36.9624 180.13 36.9624H178.883C178.883 36.9624 178.852 36.9623 178.852 36.9467V32.5806V32.565H179.972C179.972 32.565 179.988 32.565 179.988 32.5806C179.988 32.7528 180.114 32.8779 180.288 32.8779C180.335 32.8779 180.383 32.8779 180.43 32.831C180.919 32.4711 181.519 32.3928 181.945 32.3928C182.751 32.3928 183.35 32.5806 183.95 33.0188C184.345 33.3161 184.582 33.8482 184.582 34.4585V36.9467V36.9624H183.319L183.303 36.9467Z" fill="#005BAC"/>
<path d="M155.016 36.9466C155.016 36.9466 155 36.9466 155 36.931V32.5023C155 31.8763 155.458 31.5008 155.584 31.4069C155.979 31.1252 156.215 31 156.926 31H160.62C160.62 31 160.635 31 160.635 31.0157V31.8763V31.892H156.957C156.705 31.9076 156.5 32.1111 156.468 32.3615V33.5351H158.583H160.241C160.335 33.5351 160.399 33.5977 160.399 33.6916C160.32 34.0985 159.972 34.3958 159.578 34.4271H159.483C159.073 34.4271 157.463 34.4271 156.5 34.4271C156.5 34.9592 156.5 35.8356 156.5 36.4146C156.5 36.6806 156.5 36.884 156.5 36.9466V36.9623H155.063L155.016 36.9466Z" fill="#005BAC"/>
<path d="M195.547 37.1218C193.812 37.1218 192.349 36.0468 192.349 34.7754C192.349 33.504 193.784 32.4126 195.612 32.4126C197.342 32.4126 198.761 33.4603 198.777 34.7536C198.777 34.7972 198.761 34.8354 198.734 34.8627C198.706 34.89 198.668 34.9064 198.63 34.9064H195.645C195.28 34.9064 194.963 34.6444 194.881 34.2679C194.881 34.2515 194.881 34.2406 194.881 34.2352C194.881 34.1533 194.947 34.0878 195.029 34.0878H197.2C196.878 33.6349 196.245 33.3512 195.552 33.3512C195.089 33.3512 194.581 33.5203 194.248 33.7823C193.894 34.0387 193.713 34.388 193.713 34.7754C193.713 35.5666 194.521 36.1833 195.552 36.1833C196.196 36.1833 196.764 35.965 197.102 35.583C197.102 35.583 197.113 35.5776 197.119 35.5776H198.324C198.412 35.5776 198.477 35.643 198.477 35.7249C198.477 35.7467 198.477 35.774 198.461 35.7958C198.461 35.7958 198.461 35.8067 198.455 35.8067C197.904 36.6144 196.797 37.1218 195.558 37.1218H195.547Z" fill="#005BAC"/>
<defs>
<linearGradient id="paint0_linear_23_856" x1="19.5336" y1="0.655984" x2="19.5336" y2="39.6102" gradientUnits="userSpaceOnUse">
<stop stop-color="#004098"/>
<stop offset="1" stop-color="#00A0E9"/>
</linearGradient>
</defs>
</svg>
