<svg width="80" height="80" viewBox="0 0 80 80" fill="none" xmlns="http://www.w3.org/2000/svg">
<g clip-path="url(#clip0_70_6901)">
<path fill-rule="evenodd" clip-rule="evenodd" d="M43.9335 54.7501C53.9909 54.7501 62.1981 46.5429 62.1981 36.4808C62.1981 26.4188 53.9909 18.2163 43.9335 18.2163C33.8715 18.2163 25.6643 26.4188 25.6643 36.4808C25.6643 46.5429 33.8715 54.7501 43.9335 54.7501Z" fill="#FEDB41"/>
<path fill-rule="evenodd" clip-rule="evenodd" d="M43.9335 50.1594C51.4649 50.1594 57.6121 44.0169 57.6121 36.4808C57.6121 28.9494 51.4649 22.8022 43.9335 22.8022C36.3974 22.8022 30.2549 28.9494 30.2549 36.4808C30.2549 44.0169 36.3974 50.1594 43.9335 50.1594Z" fill="#EA9000"/>
<path fill-rule="evenodd" clip-rule="evenodd" d="M43.5989 25.9998C44.1083 25.9998 44.5214 26.4128 44.5214 26.9222V28.8867C46.1868 29.1511 47.7924 30.1663 48.4496 32.101C48.6135 32.5834 48.3553 33.1073 47.8729 33.2712C47.3905 33.4351 46.8666 33.1768 46.7027 32.6944C46.1985 31.2101 44.7229 30.5253 43.2278 30.6813C42.6614 30.7404 42.1487 30.9116 41.7294 31.1791C41.4053 31.3858 41.1369 31.6501 40.9424 31.9646C40.7235 32.3187 40.5983 32.7366 40.5928 33.2078C40.5892 33.5201 40.6371 33.7914 40.7338 34.0303C40.8415 34.2962 41.0098 34.5219 41.2349 34.7192C41.6958 35.1232 42.4602 35.4614 43.6111 35.6492C45.3367 35.9307 46.626 36.5801 47.4569 37.492C48.297 38.4138 48.6107 39.5449 48.466 40.6298C48.2191 42.48 46.6818 44.0565 44.5255 44.3765V46.6007C44.5255 47.1101 44.1125 47.5231 43.603 47.5231C43.0935 47.5231 42.6805 47.1101 42.6805 46.6007V44.3566C41.1251 44.1273 40.1049 43.4474 39.4601 42.6432C38.7472 41.754 38.5739 40.8091 38.5153 40.4894C38.4234 39.9882 38.7551 39.5074 39.2562 39.4155C39.7573 39.3236 40.2381 39.6553 40.33 40.1564C40.3776 40.4159 40.4875 40.9751 40.8996 41.4891C41.2833 41.9677 42.0125 42.5098 43.5092 42.5855C45.3613 42.6799 46.4878 41.5055 46.6372 40.3857C46.7109 39.8337 46.5616 39.2486 46.0932 38.7347C45.6158 38.2107 44.7513 37.7046 43.3141 37.4701C41.9805 37.2525 40.8381 36.8249 40.0188 36.1066C39.1659 35.3591 38.7343 34.3575 38.7479 33.1864C38.7772 30.677 40.6932 29.2362 42.6764 28.8959V26.9222C42.6764 26.4128 43.0894 25.9998 43.5989 25.9998Z" fill="#FEDB41"/>
<path fill-rule="evenodd" clip-rule="evenodd" d="M11.501 49.4978H24.5178C29.7563 53.5431 34.9946 57.5837 40.233 61.6245C42.3489 63.2556 42.9268 66.1684 41.7291 68.4569L57.2952 60.9116C59.9889 59.6066 63.256 60.7437 64.561 63.433C65.866 66.122 64.7288 69.3937 62.0396 70.6987C34.193 84.2003 39.5713 84.7128 11.501 70.0695V49.4978Z" fill="#FFCEBF"/>
<path d="M25.9067 61.0466L24.8534 60.231L23.2268 62.3422L34.5379 71.0714C36.0152 72.2086 37.819 72.6421 39.5385 72.4183C41.2629 72.1992 42.8988 71.3231 44.0359 69.8503C44.2317 69.5939 44.4087 69.333 44.5624 69.0627C44.7256 68.7738 44.8654 68.4894 44.9726 68.2144L45.6484 66.5599L41.7288 68.4567C41.0531 69.2071 40.1488 69.6544 39.2029 69.7756C38.159 69.9108 37.0637 69.6499 36.1688 68.96L25.9067 61.0466Z" fill="#FFB09E"/>
<path fill-rule="evenodd" clip-rule="evenodd" d="M0.078125 45.7646H11.5009V73.8023H0.078125V45.7646Z" fill="#076ED7"/>
<path d="M19.1777 16C19.0741 20.2876 16.1595 23.7985 12.5224 24.1804C16.0553 24.5527 18.7752 27.9096 18.8384 32.0559H18.8661C19.0933 27.9738 21.8623 24.6586 25.3344 24.1997L25.3352 24.1579C21.7987 23.6894 19.1116 20.2202 19.1805 16H19.1777Z" fill="#FFD400"/>
<path d="M61.4688 0C61.321 6.06698 56.9841 11.035 51.5662 11.5754C56.8301 12.1022 60.8872 16.8522 60.9876 22.7194H61.0289C61.3611 16.943 65.4815 12.252 70.6534 11.6026L70.6546 11.5436C65.3852 10.8806 61.3767 5.97161 61.4729 0H61.4688Z" fill="#FFD400"/>
</g>
<defs>
<clipPath id="clip0_70_6901">
<rect width="80" height="80" fill="white"/>
</clipPath>
</defs>
</svg>
