<svg width="24" height="24" viewBox="0 0 24 24" fill="none" xmlns="http://www.w3.org/2000/svg">
<path d="M18.5334 3.00001V2.13335C18.5334 1.61788 18.1156 1.20001 17.6001 1.20001V1.20001C17.0846 1.20001 16.6668 1.61788 16.6668 2.13335V3.00001H14.8001V2.13335C14.8001 1.61788 14.3822 1.20001 13.8668 1.20001V1.20001C13.3513 1.20001 12.9334 1.61788 12.9334 2.13335V3.00001H11.0668V2.13335C11.0668 1.61788 10.6489 1.20001 10.1334 1.20001V1.20001C9.61797 1.20001 9.2001 1.61788 9.2001 2.13335V3.00001H7.33343V2.13335C7.33343 1.61788 6.91556 1.20001 6.4001 1.20001V1.20001C5.88463 1.20001 5.46676 1.61788 5.46676 2.13335V3.00001V3.00001C4.43583 3.00001 3.6001 3.83575 3.6001 4.86668V20.1C3.6001 20.8161 3.8951 21.5029 4.4202 22.0092C4.9453 22.5155 5.65749 22.8 6.4001 22.8H17.6001C18.3427 22.8 19.0549 22.5155 19.58 22.0092C20.1051 21.5029 20.4001 20.8161 20.4001 20.1V4.86668C20.4001 3.83575 19.5644 3.00001 18.5334 3.00001V3.00001ZM18.5334 20.1C18.5334 20.3387 18.4351 20.5676 18.2601 20.7364C18.085 20.9052 17.8476 21 17.6001 21H6.4001C6.15256 21 5.91517 20.9052 5.74013 20.7364C5.5651 20.5676 5.46676 20.3387 5.46676 20.1V5.80001C5.46676 5.24773 5.91448 4.80001 6.46676 4.80001H17.5334C18.0857 4.80001 18.5334 5.24773 18.5334 5.80001V20.1ZM16.6668 8.40001C16.6668 8.89707 16.2638 9.30001 15.7668 9.30001H8.23343C7.73637 9.30001 7.33343 8.89707 7.33343 8.40001V8.40001C7.33343 7.90296 7.73637 7.50001 8.23343 7.50001H15.7668C16.2638 7.50001 16.6668 7.90296 16.6668 8.40001V8.40001ZM16.6668 12C16.6668 12.4971 16.2638 12.9 15.7668 12.9H8.23343C7.73637 12.9 7.33343 12.4971 7.33343 12V12C7.33343 11.503 7.73637 11.1 8.23343 11.1H15.7668C16.2638 11.1 16.6668 11.503 16.6668 12V12ZM12.9334 15.6C12.9334 16.0971 12.5305 16.5 12.0334 16.5H8.23343C7.73637 16.5 7.33343 16.0971 7.33343 15.6V15.6C7.33343 15.103 7.73637 14.7 8.23343 14.7H12.0334C12.5305 14.7 12.9334 15.103 12.9334 15.6V15.6Z" fill="white"/>
</svg>
