<svg xmlns="http://www.w3.org/2000/svg" viewBox="0 0 54 54"><defs><clipPath id="a"><path d="M53.87 27A26.87 26.87 0 0127 53.87 26.87 26.87 0 01.13 27a26.87 26.87 0 0153.74 0z" fill="none"/></clipPath></defs><path d="M54 27a27 27 0 01-27 27A27 27 0 010 27a27 27 0 0154 0z" fill="#a4daff"/><g clip-path="url(#a)"><path d="M29.35 40.28c0 .47-.57.85-1.27.85h-1.17c-.7 0-1.27-.38-1.27-.85v-1.5c0-.47.57-.85 1.27-.85h1.17c.7 0 1.27.38 1.27.85z" fill="#f19a71"/><path d="M35.1 43.28c0-2 .33-3.69-1.7-3.69H21c-2 0-2.22 1.66-2.22 3.69l-.32 17.26h.08v7.19a.85.85 0 00.86.86h14.84a.85.85 0 00.86-.86z" fill="#202f3e"/><path d="M27.57 55.38l4.11-15.79h-8z" fill="#d4d5d5"/><path d="M26 39.57l.8 2.49h1.59l.8-2.49z" fill="#070304"/><path d="M26.76 42l-.64 10 1.47 3.54L29 51.92 28.36 42z" fill="#070304"/><path d="M31.87 39.59h-.53l-3.78 15.93 4.54-7.23L31 46.4l2.64-2.78z" fill="#273a48"/><path d="M23.24 39.59l-1.8 4 2.64 2.78L23 48.24l4.59 7.24-3.8-15.91z" fill="#273a48"/><path d="M43.87 21.54a17 17 0 01-17 17 17 17 0 01-17-17 17 17 0 0117-17 17 17 0 0117 17z" fill="#fff"/><path d="M29.45 6.09v-.8a.47.47 0 01.47-.47H30a17.1 17.1 0 0113.18 11.32.4.4 0 010 .15.47.47 0 01-.48.47H32.23a.47.47 0 01-.33-.28l-.83-2a23.25 23.25 0 01-1.62-8.39zM19.72 22.3a.39.39 0 000-.18.48.48 0 00-.47-.48h-8.84a.47.47 0 00-.48.47 17.07 17.07 0 004.56 11.14.48.48 0 00.34.14.47.47 0 00.44-.29zm15.07 14.07L29.43 23.3a2.6 2.6 0 00-4.75-.17l-5.45 13.23a.57.57 0 000 .18.46.46 0 00.24.41 17.07 17.07 0 0015.1 0 .48.48 0 00.25-.42.47.47 0 000-.17zm9.3-14.23a.47.47 0 00-.47-.48h-8.89a.47.47 0 00-.47.48.43.43 0 000 .19l4.44 10.82a.46.46 0 00.43.3.48.48 0 00.34-.14 17.11 17.11 0 004.56-11.14zm-32.81-5.38h10.44a.47.47 0 00.4-.29l.82-2a23.08 23.08 0 001.63-8.37v-.8a.47.47 0 00-.48-.47H24a17.13 17.13 0 00-13.17 11.3.77.77 0 000 .15.47.47 0 00.47.47z" fill="#0c70c3"/><path d="M24.13 61.65l10.33 1.46a5 5 0 004-2.16 7.38 7.38 0 001.32-5.05L36 41.71c-1-2.78-2.92-1.7-2.92-1.7A2.62 2.62 0 0032 43.08l3.57 13.41a1.48 1.48 0 01-.27 1 1 1 0 01-.82.45H24.13z" fill="#202f3e"/><path d="M30.12 61.65l-10.33 1.46a5 5 0 01-4-2.16 7.49 7.49 0 01-1.32-5.05l3.77-14.19c1-2.78 2.91-1.7 2.91-1.7a2.64 2.64 0 011.11 3.07L18.7 56.49a1.53 1.53 0 00.27 1 1 1 0 00.82.45h10.33z" fill="#202f3e"/></g></svg>