<svg width="24" height="24" viewBox="0 0 24 24" fill="none" xmlns="http://www.w3.org/2000/svg">
<path d="M20.1 7.50001H17.2794C17.9031 6.93128 18.3974 6.23516 18.7288 5.45878C18.9435 4.95576 19.0865 4.42665 19.155 3.8869C19.2171 3.3964 18.8055 3.00001 18.3111 3.00001V3.00001C17.8079 3.00001 17.4114 3.41162 17.3209 3.90661C16.9563 5.89882 15.3822 6.93143 13.6632 7.32001C14.2525 6.26863 14.6063 5.10168 14.7 3.90001C14.7 3.18393 14.4155 2.49717 13.9091 1.99082C13.4028 1.48448 12.716 1.20001 12 1.20001C11.2839 1.20001 10.5971 1.48448 10.0908 1.99082C9.58441 2.49717 9.29995 3.18393 9.29995 3.90001C9.39359 5.10168 9.74736 6.26863 10.3368 7.32001C8.6177 6.93143 7.0436 5.89882 6.67904 3.90661C6.58846 3.41162 6.19202 3.00001 5.68882 3.00001V3.00001C5.19439 3.00001 4.78275 3.3964 4.84494 3.8869C4.91337 4.42665 5.05641 4.95576 5.2711 5.45878C5.60246 6.23516 6.09676 6.93128 6.72055 7.50001H3.89995C3.18387 7.50001 2.49711 7.78448 1.99076 8.29082C1.48441 8.79717 1.19995 9.48393 1.19995 10.2L1.19995 13.3C1.19995 13.5762 1.42381 13.8 1.69995 13.8H2.99995V20.3C2.99995 21.6807 4.11924 22.8 5.49995 22.8H18.4999C19.8807 22.8 20.9999 21.6807 20.9999 20.3V13.8H22.2999C22.5761 13.8 22.7999 13.5762 22.7999 13.3V10.2C22.7999 9.48393 22.5155 8.79717 22.0091 8.29082C21.5028 7.78448 20.816 7.50001 20.1 7.50001ZM12 3.00001C12.2386 3.00001 12.4676 3.09483 12.6363 3.26362C12.8051 3.4324 12.9 3.66132 12.9 3.90001C12.7913 4.85656 12.4848 5.78003 12 6.61171C11.5151 5.78003 11.2086 4.85656 11.1 3.90001C11.1 3.66132 11.1948 3.4324 11.3636 3.26362C11.5323 3.09483 11.7613 3.00001 12 3.00001ZM2.99995 10.2C2.99995 9.96132 3.09477 9.7324 3.26355 9.56362C3.43234 9.39483 3.66126 9.30001 3.89995 9.30001H11.1V12H2.99995V10.2ZM4.79995 13.8H11.1V21H5.79995C5.24767 21 4.79995 20.5523 4.79995 20V13.8ZM19.2 20C19.2 20.5523 18.7522 21 18.2 21H12.9V13.8H19.2V20ZM20.9999 12H12.9V9.30001H20.1C20.3386 9.30001 20.5676 9.39483 20.7363 9.56362C20.9051 9.7324 20.9999 9.96132 20.9999 10.2V12Z" fill="white"/>
</svg>
