<svg id="圖層_1" data-name="圖層 1" xmlns="http://www.w3.org/2000/svg" viewBox="0 0 100 100"><defs><style>.cls-1{opacity:0.8;}.cls-2{fill:#fefeff;}</style></defs><g class="cls-1"><circle cx="50" cy="50" r="50"/></g><path class="cls-2" d="M39.52,43.51H33.65v17.7H30.47V43.51H24.62V40.79h14.9Z"/><path class="cls-2" d="M41,51.26a11.23,11.23,0,0,1,2.71-7.83,9.4,9.4,0,0,1,7.31-3,8.83,8.83,0,0,1,6.92,2.9,10.64,10.64,0,0,1,2.62,7.43,11.22,11.22,0,0,1-2.67,7.79,9.15,9.15,0,0,1-7.2,3,9.12,9.12,0,0,1-7-2.87A10.44,10.44,0,0,1,41,51.26ZM44.3,51A8.68,8.68,0,0,0,46,56.59a5.65,5.65,0,0,0,4.67,2.18,5.88,5.88,0,0,0,4.8-2.07,8.58,8.58,0,0,0,1.71-5.61,9.08,9.08,0,0,0-1.65-5.73,5.67,5.67,0,0,0-4.72-2.1,5.79,5.79,0,0,0-4.75,2.18A8.57,8.57,0,0,0,44.3,51Z"/><path class="cls-2" d="M67.22,53.74v7.47H64.05V40.79h6.17a7.85,7.85,0,0,1,5.31,1.6A5.83,5.83,0,0,1,77.38,47,6.15,6.15,0,0,1,75.18,52a7.76,7.76,0,0,1-5.45,1.76Zm0-10.3V51.1h2.26q4.58,0,4.58-3.93c0-2.49-1.47-3.73-4.39-3.73Z"/></svg>