<svg width="17" height="17" viewBox="0 0 17 17" fill="none" xmlns="http://www.w3.org/2000/svg">
<path d="M15.1748 7.23505L12.8448 4.91912C12.6115 4.68724 12.2347 4.68724 12.0014 4.91912C11.7661 5.15298 11.7661 5.53364 12.0014 5.76752L14.1319 7.88572L1.89561 7.90278C1.56656 7.90324 1.30005 8.17012 1.30005 8.49917C1.30005 8.82887 1.56757 9.09602 1.89727 9.09556L14.1679 9.0785L12.0009 11.2325C11.7656 11.4664 11.7656 11.8471 12.0009 12.0809C12.2341 12.3128 12.6109 12.3128 12.8442 12.081L15.1748 9.76495C15.5112 9.42889 15.7 8.97409 15.7 8.5C15.7 8.02591 15.5112 7.57111 15.1748 7.23505Z" fill="white"/>
</svg>
