<svg width="16" height="17" viewBox="0 0 16 17" fill="none" xmlns="http://www.w3.org/2000/svg">
<path d="M14.6748 7.23505L12.3448 4.91912C12.1115 4.68724 11.7347 4.68724 11.5014 4.91912V4.91912C11.2661 5.15298 11.2661 5.53364 11.5014 5.76752L13.6319 7.88572L1.39561 7.90278C1.06656 7.90324 0.800049 8.17012 0.800049 8.49917V8.49917C0.800049 8.82887 1.06757 9.09602 1.39727 9.09556L13.6679 9.0785L11.5009 11.2325C11.2656 11.4664 11.2656 11.8471 11.5009 12.0809V12.0809C11.7341 12.3128 12.1109 12.3128 12.3442 12.081L14.6748 9.76495C15.0112 9.42889 15.2 8.97409 15.2 8.5C15.2 8.02591 15.0112 7.57111 14.6748 7.23505Z" fill="#076ED7"/>
</svg>
