<svg width="80" height="80" viewBox="0 0 80 80" fill="none" xmlns="http://www.w3.org/2000/svg">
<rect x="17.5" y="11" width="31" height="55" fill="#F4F4F4"/>
<path fill-rule="evenodd" clip-rule="evenodd" d="M51.5 15.9882V14.4626C51.5 10.9023 48.6877 8 45.2378 8H20.7623C17.3123 8 14.5 10.9023 14.5 14.4626V32.5763V62.2712V66.5374C14.5 70.0977 17.3123 73 20.7622 73H45.2378C48.6877 73 51.5 70.0977 51.5 66.5374V45.012V15.9882ZM30.7867 69.9466H36.1131C36.9593 69.9466 36.9593 68.6201 36.1131 68.6201H30.7867C29.9405 68.6201 29.9405 69.9466 30.7867 69.9466ZM45.0949 65.5668C46.2976 65.5668 47.2801 64.5529 47.2801 63.3117V43.8782V17.1106V14.6102C47.2801 13.369 46.2976 12.3551 45.0949 12.3551H20.9054C19.7026 12.3551 18.7202 13.369 18.7202 14.6102V32.7703V62.0772V63.3117C18.7202 64.5529 19.7026 65.5668 20.9054 65.5668H45.0949Z" fill="#076ED7"/>
<path d="M75.1667 40.3333C75.1667 45.1956 73.2351 49.8588 69.7969 53.297C66.3588 56.7351 61.6956 58.6667 56.8333 58.6667C51.971 58.6667 47.3079 56.7351 43.8697 53.297C40.4315 49.8588 38.5 45.1956 38.5 40.3333C38.5 35.471 40.4315 30.8079 43.8697 27.3697C47.3079 23.9315 51.971 22 56.8333 22C61.6956 22 66.3588 23.9315 69.7969 27.3697C73.2351 30.8079 75.1667 35.471 75.1667 40.3333Z" fill="#FFAA20"/>
<path d="M61.4662 31.5398L61.4661 31.54L50.8448 48.53C50.8447 48.5301 50.8447 48.5301 50.8446 48.5302C50.6018 48.9152 50.6385 49.4337 50.999 49.7752C51.519 50.2728 52.2597 50.0921 52.6125 49.5244L63.1567 32.6392C63.1567 32.6392 63.1568 32.6391 63.1568 32.639C63.483 32.1203 63.4003 31.5822 63.0601 31.296L63.06 31.2959C62.8542 31.123 62.5567 31.0294 62.2628 31.0537C61.9641 31.0784 61.6634 31.2257 61.4662 31.5398ZM51.7027 30.8432C50.2625 30.8432 49.168 31.3819 48.4364 32.2638C47.7078 33.1421 47.35 34.3469 47.35 35.6648C47.35 36.991 47.7116 38.196 48.4421 39.0724C49.1757 39.9523 50.27 40.4871 51.7027 40.4871C53.1448 40.4871 54.239 39.9488 54.9699 39.0669C55.6976 38.1887 56.0541 36.9837 56.0541 35.6648C56.0541 34.341 55.6943 33.1361 54.9649 32.2593C54.2324 31.3789 53.1383 30.8432 51.7027 30.8432ZM51.7027 32.8398C52.4549 32.8398 53.0036 33.157 53.3691 33.6609C53.7387 34.1704 53.927 34.8803 53.927 35.6648C53.927 36.4495 53.7387 37.1595 53.3691 37.6691C53.0036 38.1732 52.4548 38.4905 51.7027 38.4905C50.9449 38.4905 50.3959 38.1689 50.0313 37.6626C49.6627 37.1506 49.477 36.4403 49.477 35.6648C49.477 34.8807 49.6664 34.1708 50.0367 33.6612C50.4031 33.157 50.9522 32.8398 51.7027 32.8398ZM62.2986 40.6303C60.8543 40.6303 59.7598 41.1706 59.0292 42.0534C58.3016 42.9325 57.9459 44.1372 57.9459 45.4519C57.9459 46.7763 58.3067 47.9811 59.0368 48.8578C59.7699 49.7381 60.8643 50.2736 62.2986 50.2736C63.7436 50.2736 64.8378 49.7342 65.568 48.8517C66.295 47.973 66.65 46.7682 66.65 45.4519C66.65 44.1292 66.2908 42.9243 65.5617 42.0473C64.8294 41.1665 63.7354 40.6303 62.2986 40.6303ZM62.2986 42.6269C63.0509 42.6269 63.5996 42.9442 63.9652 43.4482C64.3347 43.9577 64.523 44.6676 64.523 45.4519C64.523 46.2366 64.3346 46.9467 63.9651 47.4563C63.5995 47.9603 63.0508 48.2776 62.2986 48.2776C61.5408 48.2776 60.9918 47.9561 60.6273 47.4498C60.2587 46.9377 60.073 46.2275 60.073 45.4519C60.073 44.6682 60.2622 43.9583 60.6324 43.4486C60.9987 42.9444 61.5478 42.6269 62.2986 42.6269Z" fill="white" stroke="white" stroke-width="0.3"/>
</svg>
