<svg width="80" height="80" viewBox="0 0 80 80" fill="none" xmlns="http://www.w3.org/2000/svg">
<path d="M30.8319 12.2052C34.2459 16.1538 35.2988 20.843 33.1764 22.678C31.057 24.5105 26.5691 22.7914 23.155 18.8429C19.7386 14.8916 18.6858 10.6587 20.8052 8.82622C22.9276 6.99118 27.4155 8.25395 30.8319 12.2052Z" fill="#F14448"/>
<path d="M40.1019 12.2052C36.6879 16.1538 35.635 20.843 37.7574 22.678C39.8768 24.5105 44.3647 22.7914 47.7788 18.8429C51.1952 14.8916 52.248 10.6587 50.1286 8.82622C48.0062 6.99118 43.5183 8.25395 40.1019 12.2052Z" fill="#F14448"/>
<path d="M38.8123 16.9566C38.8123 16.9566 41.8171 13.0333 49.6033 14.0596C57.3896 15.086 57.2834 18.6252 57.2834 18.6252V21.8459L38.3486 23.297L38.8123 16.9566Z" fill="#FC545D"/>
<path d="M32.8064 16.9566C32.8064 16.9566 29.8017 13.0333 22.0154 14.0596C14.2291 15.086 14.3353 18.6252 14.3353 18.6252V21.8459L33.2701 23.297L32.8064 16.9566Z" fill="#FC545D"/>
<path d="M41.0182 20.0296H30.604C30.604 17.1539 32.9354 14.8225 35.8111 14.8225C38.6868 14.8225 41.0182 17.1539 41.0182 20.0296Z" fill="#FFBC50"/>
<path d="M62.8236 30.9763V63.0321C62.8236 64.772 61.4173 66.1784 59.6773 66.1784H11.9393C10.2025 66.1784 8.79297 64.772 8.79297 63.0321V30.9763H62.8236Z" fill="#FFC971"/>
<path d="M66.119 22.2324V28.773C66.119 29.9893 65.133 30.9754 63.9166 30.9754H7.70241C6.48605 30.9754 5.5 29.9893 5.5 28.773V22.2324C5.5 21.0161 6.48605 20.03 7.70241 20.03H63.9166C65.133 20.03 66.119 21.0161 66.119 22.2324Z" fill="#FFAA20"/>
<path d="M30.4734 30.9761H41.1486V66.1781H30.4734V30.9761Z" fill="#FC545D"/>
<path d="M30.4734 20.03H41.1486V30.9761H30.4734V20.03Z" fill="#FC545D"/>
<path d="M30.47 30.9761H41.1487V33.7857H30.47V30.9761Z" fill="#F14448"/>
<path d="M41.0181 20.0297H30.6045C30.6045 18.2226 31.5263 16.6254 32.9227 15.6853C32.375 16.5158 32.0465 17.5198 32.0465 18.5876H40.8082C40.9451 19.0439 41.0181 19.5277 41.0181 20.0297Z" fill="#FFB32C"/>
<path d="M64.1868 43.4612L73.6911 60.7437C74.3537 61.9485 73.9166 63.4642 72.7082 64.1287L59.8373 71.2069C58.6325 71.8695 57.1148 71.4288 56.4522 70.224L46.9479 52.9415C46.6397 52.381 46.6079 51.711 46.8617 51.1211L50.7487 42.0856C51.1253 41.2101 52.0461 40.7037 52.9835 40.8566L62.6955 42.4134C63.3298 42.515 63.8785 42.9007 64.1868 43.4612Z" fill="#076ED7"/>
<path d="M65.0355 50.1105L70.6004 60.1869C70.9257 60.776 70.7124 61.5155 70.1233 61.8408L59.3305 67.8013C58.7415 68.1266 58.002 67.9133 57.6767 67.3242L52.1119 57.2478C51.7865 56.6587 51.9998 55.9193 52.5889 55.594L63.3816 49.6335C63.9707 49.3082 64.7102 49.5214 65.0355 50.1105Z" fill="white"/>
<path d="M70.5642 60.1215L70.6004 60.1869C70.9257 60.776 70.7124 61.5155 70.1233 61.8408L59.3305 67.8013C58.7415 68.1266 58.002 67.9133 57.6767 67.3242L52.1119 57.2478C51.7865 56.6587 51.9998 55.9193 52.5889 55.594L52.6543 55.5578L58.183 65.5688C58.5083 66.1579 59.2478 66.3711 59.8369 66.0458L70.5642 60.1215Z" fill="#E5F5F9"/>
<path d="M61.0825 54.1266L61.0825 54.1263C61.0936 53.9282 61.1972 53.7801 61.3307 53.6913C61.4601 53.6052 61.622 53.5716 61.7652 53.5997L61.7653 53.5997C62.013 53.6486 62.1851 53.8893 62.1674 54.2018L62.1674 54.2016L61.0825 54.1266ZM61.0825 54.1266L60.5851 63.3059C60.5851 63.306 60.5851 63.3061 60.5851 63.3062M61.0825 54.1266L60.5851 63.3062M60.5851 63.3062L60.5851 63.3065L60.7349 63.3147L60.5851 63.3062ZM61.6778 63.3221L62.1674 54.2021L61.6778 63.3221ZM57.0484 55.9456C56.4506 56.2758 56.1143 56.7544 56.0111 57.2966C55.9089 57.8341 56.0389 58.4166 56.3379 58.9579C56.6387 59.5027 57.0642 59.9222 57.5739 60.1207C58.0881 60.3209 58.6713 60.2895 59.266 59.9611C59.8645 59.6306 60.2009 59.1521 60.3037 58.6101C60.4056 58.0728 60.275 57.4905 59.9758 56.9488C59.6755 56.405 59.2509 55.9852 58.7415 55.7863C58.2277 55.5856 57.6443 55.6166 57.0484 55.9456ZM57.5698 56.8897C57.8488 56.7356 58.1121 56.7418 58.3475 56.8523C58.589 56.9656 58.811 57.1942 58.9794 57.4991C59.1479 57.8041 59.2231 58.1138 59.1904 58.3787C59.1586 58.6368 59.0236 58.863 58.7446 59.0171C58.4636 59.1723 58.1993 59.1645 57.9637 59.053C57.7218 58.9384 57.5007 58.7091 57.3343 58.4077C57.166 58.103 57.0912 57.7931 57.1242 57.5281C57.1563 57.2697 57.2915 57.0434 57.5698 56.8897ZM63.475 57.5262C62.8755 57.8573 62.5395 58.3366 62.437 58.879C62.3354 59.4165 62.4662 59.9985 62.7645 60.5385C63.0649 61.0825 63.49 61.5022 63.9996 61.7009C64.5136 61.9013 65.0971 61.8702 65.6924 61.5414C66.2921 61.2102 66.6283 60.7313 66.7307 60.1892C66.8321 59.6519 66.701 59.07 66.4024 58.5294C66.1024 57.9861 65.678 57.5661 65.1686 57.367C64.6548 57.1662 64.0713 57.1969 63.475 57.5262ZM63.9963 58.4703C64.2754 58.3162 64.5387 58.3224 64.7741 58.4329C65.0157 58.5462 65.2376 58.7748 65.406 59.0797C65.5745 59.3847 65.6497 59.6944 65.617 59.9592C65.5851 60.2174 65.4502 60.4436 65.1712 60.5976C64.8902 60.7529 64.6259 60.7451 64.3903 60.6336C64.1484 60.519 63.9273 60.2897 63.7609 59.9882C63.5927 59.6837 63.5178 59.3739 63.5507 59.1088C63.5828 58.8504 63.7179 58.624 63.9963 58.4703Z" fill="#FF9D00" stroke="#FF9D00" stroke-width="0.3"/>
<circle cx="55.1289" cy="46.8528" r="2" fill="white"/>
<path fill-rule="evenodd" clip-rule="evenodd" d="M49.9188 38.6172C48.7697 38.4238 47.8438 38.6808 47.2823 39.2778C46.7207 39.8748 46.5208 40.8147 46.7842 41.9498C47.0464 43.0796 47.7576 44.324 48.8841 45.3835C48.9904 45.4835 49.0984 45.5799 49.2075 45.6725L48.6687 46.9098C48.4384 46.73 48.2128 46.5368 47.9934 46.3304C46.7061 45.1196 45.8456 43.6562 45.5179 42.2437C45.1913 40.8364 45.3833 39.3993 46.3353 38.3871C47.2874 37.375 48.7101 37.0954 50.1347 37.3353C51.5646 37.576 53.0779 38.3453 54.3652 39.5562C55.6525 40.767 56.513 42.2304 56.8407 43.6429C57.1672 45.0501 56.9752 46.4873 56.0232 47.4995C55.7339 47.807 55.3086 48.1206 54.8727 48.369C54.6871 48.4748 54.4867 48.5761 54.2811 48.6626C54.2811 48.6626 53.958 48.5726 53.6789 48.2628C53.3998 47.953 53.2766 47.617 53.2766 47.617C53.5156 47.5827 53.863 47.4481 54.2291 47.2395C54.5903 47.0337 54.9011 46.795 55.0763 46.6088C55.6378 46.0118 55.8378 45.0719 55.5744 43.9367C55.3122 42.8069 54.6009 41.5626 53.4745 40.5031C52.3481 39.4436 51.0626 38.8098 49.9188 38.6172Z" fill="#74ABF4"/>
</svg>
