<svg width="132" height="132" viewBox="0 0 132 132" fill="none" xmlns="http://www.w3.org/2000/svg">
<path d="M104.214 0H27.786C12.4402 0 0 12.4402 0 27.786V104.214C0 119.56 12.4402 132 27.786 132H104.214C119.56 132 132 119.56 132 104.214V27.786C132 12.4402 119.56 0 104.214 0Z" fill="white"/>
<path d="M61.7016 45.1782V46.9811C59.7634 47.5445 57.5549 49.2798 57.5323 52.3673V52.4575H57.5549C57.5549 53.9899 58.0957 55.252 59.0873 56.176C59.9888 57.0324 61.2283 57.5958 62.8735 57.8887C64.2933 58.1366 65.0595 58.7001 65.4426 59.1057C65.7807 59.5114 65.9384 60.0072 65.8708 60.4804C65.7581 61.2918 65.0144 62.4637 63.3918 62.4637C63.3242 62.4637 63.2791 62.4637 63.2115 62.4637C61.8593 62.3735 61.2058 61.8777 60.9128 61.4495C60.5522 60.9762 60.4846 60.4579 60.4395 60.1875C60.3719 59.7367 60.1015 59.3311 59.7409 59.0606C59.4028 58.8127 58.9747 58.7226 58.569 58.7902C57.7126 58.948 57.1492 59.8043 57.2844 60.7509C57.352 61.1565 57.5774 62.351 58.3887 63.4778C59.1775 64.537 60.2818 65.2356 61.6565 65.5737V67.602C61.6565 68.526 62.3551 69.2922 63.234 69.2922C64.113 69.2922 64.8116 68.526 64.8116 67.602V65.5962C67.0427 65.0328 68.7104 63.1623 68.9583 60.8861C69.1386 59.3987 68.7104 57.9564 67.7413 56.807C66.7723 55.6351 65.2398 54.8463 63.3242 54.5083C62.0847 54.3055 61.4537 53.8998 61.1382 53.6068C60.8001 53.2913 60.6424 52.9082 60.6649 52.3448C60.6649 51.6912 60.9353 51.1954 61.1607 50.925C61.6114 50.4517 62.2199 50.1362 62.8735 50.0686C64.2933 49.9108 65.4652 50.6545 65.8708 51.9391C66.006 52.3899 66.3215 52.7504 66.7272 52.9533C67.1103 53.1336 67.516 53.1561 67.8991 52.9983C68.7104 52.7054 69.1611 51.7363 68.8907 50.8799C68.2597 48.8516 66.7723 47.4093 64.7891 46.891V45.1782C64.7891 44.75 64.6313 44.3218 64.3609 44.0288C64.0904 43.7359 63.6848 43.5556 63.2566 43.5556C62.3551 43.5556 61.679 44.2542 61.679 45.1782H61.7016Z" fill="#005BAC"/>
<path d="M41.3511 56.4464C41.3511 68.5034 51.1545 78.3068 63.2115 78.3068C75.2685 78.3068 85.0719 68.5034 85.0719 56.4464C85.0719 44.3894 75.2685 34.586 63.2115 34.586C51.1545 34.586 41.3511 44.3894 41.3511 56.4464ZM81.9168 56.4464C81.9168 66.7681 73.5332 75.1517 63.2115 75.1517C52.8898 75.1517 44.5062 66.7681 44.5062 56.4464C44.5062 46.1247 52.8898 37.7412 63.2115 37.7412C73.5332 37.7412 81.9168 46.1247 81.9168 56.4464Z" fill="#005BAC"/>
<path d="M35.6945 55.4773C36.1452 54.7336 35.8973 53.7646 35.1536 53.3138C34.4099 52.8631 33.4408 53.111 32.9901 53.8547L31.7957 55.8379C32.1112 38.9581 45.926 25.3236 62.8735 25.3236C67.2005 25.3236 71.4148 26.2025 75.3812 27.9603C76.17 28.3209 77.1165 27.9603 77.4546 27.149C77.7926 26.3377 77.4546 25.4137 76.6432 25.0757C72.2712 23.1601 67.6287 22.1685 62.8509 22.1685C44.1907 22.1685 29.0012 37.1777 28.6406 55.7478L27.5138 53.9223C27.063 53.1786 26.094 52.9533 25.3503 53.404C24.6066 53.8547 24.3812 54.8238 24.8319 55.5675L28.9336 62.2608C28.9336 62.2608 28.9561 62.2608 28.9786 62.3059C29.1138 62.5087 29.2716 62.6665 29.4744 62.8017C29.4744 62.8017 29.4744 62.8017 29.497 62.8017C29.7223 62.9369 29.9928 63.0045 30.2632 63.0045C30.2632 63.0045 30.2632 63.0045 30.2857 63.0045C30.2857 63.0045 30.2857 63.0045 30.3083 63.0045C30.5787 63.0045 30.8492 62.9144 31.0745 62.7792C31.0745 62.7792 31.0745 62.7792 31.0971 62.7792C31.2999 62.6439 31.4576 62.4862 31.5929 62.2834C31.5929 62.2834 31.6154 62.2834 31.6379 62.2383L35.6945 55.4773Z" fill="#005BAC"/>
<path d="M96.7683 45.9895C96.7683 45.9895 96.7458 45.967 96.7232 45.9444C96.6782 45.8543 96.588 45.7867 96.5204 45.7191C96.4528 45.6515 96.3626 45.5613 96.2725 45.4937C96.2725 45.4937 96.25 45.4712 96.2274 45.4486C96.1598 45.4035 96.0922 45.4036 96.0246 45.381C95.9119 45.3359 95.8218 45.2909 95.7091 45.2683C95.6189 45.2683 95.5063 45.2683 95.4161 45.2683C95.3034 45.2683 95.2133 45.2683 95.1006 45.2683C94.9879 45.2683 94.8978 45.3359 94.7851 45.381C94.7175 45.4036 94.6499 45.4261 94.5823 45.4486C94.5823 45.4486 94.5597 45.4712 94.5372 45.4937C94.447 45.5613 94.3794 45.6289 94.3118 45.6965C94.2442 45.7641 94.1541 45.8317 94.109 45.9219C94.109 45.9219 94.0865 45.9444 94.0639 45.967L89.9623 52.6603C89.5116 53.404 89.7369 54.3731 90.4806 54.8238C90.7285 54.9815 91.0215 55.0492 91.3145 55.0492C91.8553 55.0492 92.3737 54.7787 92.6667 54.3055L93.7259 52.5927L93.8386 53.404C93.9287 54.3956 93.9963 55.3872 93.9963 56.4013C93.9963 73.5516 80.0462 87.5017 62.896 87.5017C51.9207 87.5017 41.6441 81.6196 36.0776 72.1769C35.6269 71.4332 34.6578 71.1627 33.9141 71.6135C33.1704 72.0642 32.9225 73.0107 33.3507 73.777C39.4806 84.1888 50.7939 90.6793 62.8735 90.6793C81.759 90.6793 97.1289 75.3094 97.1289 56.4239C97.1289 55.2971 97.0613 54.1928 96.9711 53.1336C96.9711 52.8631 96.9035 52.6152 96.881 52.3673V52.2772L98.143 54.3956C98.436 54.8914 98.9543 55.1618 99.4952 55.1618C99.7656 55.1618 100.059 55.0942 100.307 54.9365C101.05 54.4857 101.298 53.5167 100.847 52.773L96.7908 46.012L96.7683 45.9895Z" fill="#005BAC"/>
<path d="M61.7016 45.1782V46.9811C59.7634 47.5445 57.5549 49.2798 57.5323 52.3673V52.4575H57.5549C57.5549 53.9899 58.0957 55.252 59.0873 56.176C59.9888 57.0324 61.2283 57.5958 62.8735 57.8887C64.2933 58.1366 65.0595 58.7001 65.4426 59.1057C65.7807 59.5114 65.9384 60.0072 65.8708 60.4804C65.7581 61.2918 65.0144 62.4637 63.3918 62.4637C63.3242 62.4637 63.2791 62.4637 63.2115 62.4637C61.8593 62.3735 61.2058 61.8777 60.9128 61.4495C60.5522 60.9762 60.4846 60.4579 60.4395 60.1875C60.3719 59.7367 60.1015 59.3311 59.7409 59.0606C59.4028 58.8127 58.9747 58.7226 58.569 58.7902C57.7126 58.948 57.1492 59.8043 57.2844 60.7509C57.352 61.1565 57.5774 62.351 58.3887 63.4778C59.1775 64.537 60.2818 65.2356 61.6565 65.5737V67.602C61.6565 68.526 62.3551 69.2922 63.234 69.2922C64.113 69.2922 64.8116 68.526 64.8116 67.602V65.5962C67.0427 65.0328 68.7104 63.1623 68.9583 60.8861C69.1386 59.3987 68.7104 57.9564 67.7413 56.807C66.7723 55.6351 65.2398 54.8463 63.3242 54.5083C62.0847 54.3055 61.4537 53.8998 61.1382 53.6068C60.8001 53.2913 60.6424 52.9082 60.6649 52.3448C60.6649 51.6912 60.9353 51.1954 61.1607 50.925C61.6114 50.4517 62.2199 50.1362 62.8735 50.0686C64.2933 49.9108 65.4652 50.6545 65.8708 51.9391C66.006 52.3899 66.3215 52.7504 66.7272 52.9533C67.1103 53.1336 67.516 53.1561 67.8991 52.9983C68.7104 52.7054 69.1611 51.7363 68.8907 50.8799C68.2597 48.8516 66.7723 47.4093 64.7891 46.891V45.1782C64.7891 44.75 64.6313 44.3218 64.3609 44.0288C64.0904 43.7359 63.6848 43.5556 63.2566 43.5556C62.3551 43.5556 61.679 44.2542 61.679 45.1782H61.7016Z" stroke="#005BAC" stroke-width="0.225365"/>
<path d="M41.3511 56.4464C41.3511 68.5034 51.1545 78.3068 63.2115 78.3068C75.2685 78.3068 85.0719 68.5034 85.0719 56.4464C85.0719 44.3894 75.2685 34.586 63.2115 34.586C51.1545 34.586 41.3511 44.3894 41.3511 56.4464ZM81.9168 56.4464C81.9168 66.7681 73.5332 75.1517 63.2115 75.1517C52.8898 75.1517 44.5062 66.7681 44.5062 56.4464C44.5062 46.1247 52.8898 37.7412 63.2115 37.7412C73.5332 37.7412 81.9168 46.1247 81.9168 56.4464Z" stroke="#005BAC" stroke-width="0.225365"/>
<path d="M35.6945 55.4773C36.1452 54.7336 35.8973 53.7646 35.1536 53.3138C34.4099 52.8631 33.4408 53.111 32.9901 53.8547L31.7957 55.8379C32.1112 38.9581 45.926 25.3236 62.8735 25.3236C67.2005 25.3236 71.4148 26.2025 75.3812 27.9603C76.17 28.3209 77.1165 27.9603 77.4546 27.149C77.7926 26.3377 77.4546 25.4137 76.6432 25.0757C72.2712 23.1601 67.6287 22.1685 62.8509 22.1685C44.1907 22.1685 29.0012 37.1777 28.6406 55.7478L27.5138 53.9223C27.063 53.1786 26.094 52.9533 25.3503 53.404C24.6066 53.8547 24.3812 54.8238 24.8319 55.5675L28.9336 62.2608C28.9336 62.2608 28.9561 62.2608 28.9786 62.3059C29.1138 62.5087 29.2716 62.6665 29.4744 62.8017C29.4744 62.8017 29.4744 62.8017 29.497 62.8017C29.7223 62.9369 29.9928 63.0045 30.2632 63.0045C30.2632 63.0045 30.2632 63.0045 30.2857 63.0045C30.2857 63.0045 30.2857 63.0045 30.3083 63.0045C30.5787 63.0045 30.8492 62.9144 31.0745 62.7792C31.0745 62.7792 31.0745 62.7792 31.0971 62.7792C31.2999 62.6439 31.4576 62.4862 31.5929 62.2834C31.5929 62.2834 31.6154 62.2834 31.6379 62.2383L35.6945 55.4773Z" stroke="#005BAC" stroke-width="0.225365"/>
<path d="M96.7683 45.9895C96.7683 45.9895 96.7458 45.967 96.7232 45.9444C96.6782 45.8543 96.588 45.7867 96.5204 45.7191C96.4528 45.6515 96.3626 45.5613 96.2725 45.4937C96.2725 45.4937 96.25 45.4712 96.2274 45.4486C96.1598 45.4035 96.0922 45.4036 96.0246 45.381C95.9119 45.3359 95.8218 45.2909 95.7091 45.2683C95.6189 45.2683 95.5063 45.2683 95.4161 45.2683C95.3034 45.2683 95.2133 45.2683 95.1006 45.2683C94.9879 45.2683 94.8978 45.3359 94.7851 45.381C94.7175 45.4036 94.6499 45.4261 94.5823 45.4486C94.5823 45.4486 94.5597 45.4712 94.5372 45.4937C94.447 45.5613 94.3794 45.6289 94.3118 45.6965C94.2442 45.7641 94.1541 45.8317 94.109 45.9219C94.109 45.9219 94.0865 45.9444 94.0639 45.967L89.9623 52.6603C89.5116 53.404 89.7369 54.3731 90.4806 54.8238C90.7285 54.9815 91.0215 55.0492 91.3145 55.0492C91.8553 55.0492 92.3737 54.7787 92.6667 54.3055L93.7259 52.5927L93.8386 53.404C93.9287 54.3956 93.9963 55.3872 93.9963 56.4013C93.9963 73.5516 80.0462 87.5017 62.896 87.5017C51.9207 87.5017 41.6441 81.6196 36.0776 72.1769C35.6269 71.4332 34.6578 71.1627 33.9141 71.6135C33.1704 72.0642 32.9225 73.0107 33.3507 73.777C39.4806 84.1888 50.7939 90.6793 62.8735 90.6793C81.759 90.6793 97.1289 75.3094 97.1289 56.4239C97.1289 55.2971 97.0613 54.1928 96.9711 53.1336C96.9711 52.8631 96.9035 52.6152 96.881 52.3673V52.2772L98.143 54.3956C98.436 54.8914 98.9543 55.1618 99.4952 55.1618C99.7656 55.1618 100.059 55.0942 100.307 54.9365C101.05 54.4857 101.298 53.5167 100.847 52.773L96.7908 46.012L96.7683 45.9895Z" stroke="#005BAC" stroke-width="0.225365"/>
<path d="M105.4 27.3068L100.171 25.9096C99.1119 25.6391 98.278 24.8278 98.0076 23.7911L96.6103 18.6303C96.4751 18.0669 95.9342 17.6387 95.3257 17.6387C94.7173 17.6387 94.2215 18.0443 94.0412 18.6077L92.6214 23.7686C92.3284 24.8053 91.4945 25.6166 90.4579 25.887L85.2294 27.2617C84.666 27.397 84.2378 27.9153 84.2378 28.5238C84.2378 29.1323 84.6434 29.6055 85.2069 29.7858L88.4296 30.6422C89.1282 30.8225 89.8719 30.4168 90.0522 29.7182C90.1423 29.3802 90.0973 29.0196 89.9395 28.7266L91.134 28.4111C93.0721 27.8928 94.6271 26.3828 95.168 24.4447L95.2807 23.994L95.3933 24.4447C95.9342 26.3828 97.4892 27.8928 99.4274 28.4111L99.8781 28.5238L99.4274 28.6365C97.4892 29.1548 95.9342 30.6647 95.3933 32.6029L95.2807 33.0536L95.168 32.6029C94.9426 31.8141 94.582 31.0929 94.0862 30.507C93.613 29.9436 92.7791 29.876 92.2157 30.3267C91.9453 30.5521 91.765 30.8676 91.7424 31.2056C91.6974 31.5437 91.8101 31.9043 92.0354 32.1747C92.3284 32.5578 92.5087 32.9184 92.5988 33.3015L93.9961 38.4624C94.1313 39.0258 94.6722 39.454 95.2807 39.454C95.8891 39.454 96.3849 39.0483 96.5652 38.4849L97.985 33.3241C98.278 32.2874 99.1119 31.4761 100.149 31.2056L105.377 29.8309C105.94 29.6957 106.369 29.1773 106.369 28.5689C106.369 27.9604 105.963 27.4871 105.4 27.3068Z" fill="#EB6100"/>
<path fill-rule="evenodd" clip-rule="evenodd" d="M40.4706 102.023H24.6859V100.199H40.4706V102.023ZM40.7271 113.966C40.8552 113.992 40.9321 114.12 40.9321 114.249L40.9577 114.223V114.351C40.8552 115.096 40.1633 115.61 39.4202 115.507H35.6022C34.2185 115.482 33.1422 114.351 33.1422 112.965V105.49H31.7841L26.4286 115.533H24.7886H24.7118C24.5836 115.507 24.5068 115.379 24.5068 115.25V115.148C25.4036 113.324 29.5804 105.567 29.5804 105.567H24.3274V103.847H40.9321V105.67H34.9359V113.427C35.0384 113.735 35.3203 113.966 35.6534 113.966H40.6502H40.7271Z" fill="#005BAC"/>
<path d="M24.6859 102.023H24.4986V102.21H24.6859V102.023ZM40.4706 102.023V102.21H40.6579V102.023H40.4706ZM24.6859 100.199V100.012H24.4986V100.199H24.6859ZM40.4706 100.199H40.6579V100.012H40.4706V100.199ZM40.9321 114.249H40.7448V114.702L41.0647 114.381L40.9321 114.249ZM40.7271 113.966L40.7639 113.783L40.7457 113.779H40.7271V113.966ZM40.9577 114.223H41.145V113.77L40.8251 114.091L40.9577 114.223ZM40.9577 114.351L41.1432 114.377L41.145 114.364V114.351H40.9577ZM39.4202 115.507L39.4459 115.322L39.4331 115.32H39.4202V115.507ZM35.6022 115.507L35.5987 115.695H35.6022V115.507ZM33.1422 105.49H33.3295V105.303H33.1422V105.49ZM31.7841 105.49V105.303H31.6718L31.6189 105.402L31.7841 105.49ZM26.4286 115.533V115.72H26.541L26.5939 115.621L26.4286 115.533ZM24.7118 115.533L24.675 115.717L24.6932 115.72H24.7118V115.533ZM24.5068 115.148L24.3387 115.065L24.3195 115.104V115.148H24.5068ZM29.5804 105.567L29.7453 105.656L29.894 105.38H29.5804V105.567ZM24.3274 105.567H24.1401V105.755H24.3274V105.567ZM24.3274 103.847V103.659H24.1401V103.847H24.3274ZM40.9321 103.847H41.1194V103.659H40.9321V103.847ZM40.9321 105.67V105.858H41.1194V105.67H40.9321ZM34.9359 105.67V105.483H34.7487V105.67H34.9359ZM34.9359 113.427H34.7487V113.457L34.7582 113.486L34.9359 113.427ZM24.6859 102.21H40.4706V101.836H24.6859V102.21ZM24.4986 100.199V102.023H24.8731V100.199H24.4986ZM40.4706 100.012H24.6859V100.387H40.4706V100.012ZM40.6579 102.023V100.199H40.2833V102.023H40.6579ZM41.1194 114.249C41.1194 114.06 41.0051 113.831 40.7639 113.783L40.6903 114.15C40.6996 114.152 40.7113 114.158 40.7232 114.175C40.7359 114.193 40.7448 114.22 40.7448 114.249H41.1194ZM40.8251 114.091L40.7995 114.116L41.0647 114.381L41.0903 114.355L40.8251 114.091ZM41.145 114.351V114.223H40.7704V114.351H41.145ZM39.3946 115.693C40.2383 115.809 41.0264 115.226 41.1432 114.377L40.7722 114.326C40.684 114.966 40.0884 115.411 39.4459 115.322L39.3946 115.693ZM35.6022 115.695H39.4202V115.32H35.6022V115.695ZM32.9549 112.965C32.9549 114.45 34.1096 115.667 35.5987 115.695L35.6057 115.32C34.3274 115.296 33.3295 114.253 33.3295 112.965H32.9549ZM32.9549 105.49V112.965H33.3295V105.49H32.9549ZM31.7841 105.678H33.1422V105.303H31.7841V105.678ZM26.5939 115.621L31.9494 105.579L31.6189 105.402L26.2634 115.445L26.5939 115.621ZM24.7886 115.72H26.4286V115.346H24.7886V115.72ZM24.7118 115.72H24.7886V115.346H24.7118V115.72ZM24.3195 115.25C24.3195 115.439 24.4338 115.668 24.675 115.717L24.7486 115.349C24.7393 115.347 24.7276 115.342 24.7157 115.324C24.7029 115.306 24.694 115.279 24.694 115.25H24.3195ZM24.3195 115.148V115.25H24.694V115.148H24.3195ZM29.5804 105.567C29.4155 105.479 29.4155 105.479 29.4155 105.479C29.4154 105.479 29.4154 105.479 29.4153 105.479C29.4152 105.479 29.415 105.48 29.4148 105.48C29.4143 105.481 29.4135 105.482 29.4125 105.484C29.4105 105.488 29.4075 105.494 29.4035 105.501C29.3956 105.516 29.3838 105.538 29.3684 105.566C29.3376 105.624 29.2922 105.708 29.2342 105.816C29.1183 106.031 28.9516 106.341 28.7488 106.719C28.3431 107.475 27.7929 108.502 27.2147 109.586C26.0591 111.751 24.7889 114.15 24.3387 115.065L24.6748 115.23C25.1215 114.322 26.3881 111.93 27.5451 109.762C28.1232 108.679 28.6733 107.652 29.0788 106.897C29.2816 106.519 29.4482 106.209 29.5641 105.993C29.6221 105.885 29.6674 105.801 29.6982 105.744C29.7136 105.715 29.7254 105.693 29.7333 105.679C29.7373 105.671 29.7403 105.666 29.7423 105.662C29.7433 105.66 29.7441 105.659 29.7446 105.658C29.7448 105.657 29.745 105.657 29.7451 105.657C29.7452 105.657 29.7452 105.656 29.7453 105.656C29.7453 105.656 29.7453 105.656 29.5804 105.567ZM24.3274 105.755H29.5804V105.38H24.3274V105.755ZM24.1401 103.847V105.567H24.5147V103.847H24.1401ZM40.9321 103.659H24.3274V104.034H40.9321V103.659ZM41.1194 105.67V103.847H40.7448V105.67H41.1194ZM34.9359 105.858H40.9321V105.483H34.9359V105.858ZM35.1232 113.427V105.67H34.7487V113.427H35.1232ZM35.6534 113.779C35.4106 113.779 35.1939 113.609 35.1137 113.368L34.7582 113.486C34.883 113.861 35.23 114.153 35.6534 114.153V113.779ZM40.6502 113.779H35.6534V114.153H40.6502V113.779ZM40.7271 113.779H40.6502V114.153H40.7271V113.779Z" fill="#005BAC"/>
<path d="M63.2782 104.104C63.2782 103.975 63.2013 103.847 63.0732 103.821C63.0732 103.821 63.0219 103.821 62.9963 103.821H55.1808V99.7373H53.2846V103.847H46.1098V105.568H52.7465C52.7465 105.568 47.2116 113.221 45.8535 115.122V115.302C45.8535 115.43 45.9304 115.559 46.0585 115.584C46.0585 115.584 46.1098 115.584 46.1354 115.584H47.7754L53.669 107.391C53.8484 107.057 54.284 106.955 54.5915 107.134C54.694 107.186 54.7708 107.288 54.8477 107.391L60.7414 115.482H62.3813C62.5095 115.482 62.6376 115.405 62.6632 115.276C62.6632 115.276 62.6632 115.225 62.6632 115.199C62.6632 115.199 62.629 115.139 62.5607 115.019C61.2026 113.119 55.7446 105.542 55.6677 105.465H61.382C62.2276 105.67 63.0476 105.131 63.2526 104.309C63.2526 104.232 63.2782 104.181 63.2782 104.104Z" fill="#005BAC" stroke="#005BAC" stroke-width="0.374568"/>
<path d="M106.327 106.106L103.611 102.099C103.611 102.099 103.432 101.868 103.329 101.739L103.047 101.277C102.842 100.943 102.56 100.661 102.227 100.455C101.792 100.25 101.33 100.121 100.869 100.096H91.6955V101.56C91.593 101.739 89.4149 104.847 88.6206 105.926C88.6206 105.926 88.5181 106.029 88.5181 106.106C88.5181 106.234 88.5949 106.363 88.7231 106.388C88.7231 106.388 88.7743 106.388 88.7999 106.388H90.4399C90.5937 106.183 90.7474 105.977 90.9011 105.746H96.7179V107.929H90.5424V109.573H96.7179V113.76H94.4373C94.3348 113.58 93.3355 111.859 92.8999 110.934H91.2599C91.1318 110.934 91.0037 111.011 90.978 111.14C90.978 111.14 90.978 111.191 90.978 111.217V111.397L92.3361 113.76H89.3381V115.403H104.226C105.046 115.403 105.763 114.838 105.943 114.042V113.939C105.943 113.811 105.866 113.683 105.738 113.657C105.738 113.657 105.687 113.657 105.661 113.657H102.945L104.303 111.294V111.114C104.303 110.986 104.226 110.857 104.098 110.832C104.098 110.832 104.047 110.832 104.021 110.832H102.381L100.843 113.657H98.6654V109.47H104.738V107.827H98.6654V105.643H104.303C104.405 105.875 104.559 106.106 104.764 106.286H106.403C106.424 106.286 106.437 106.262 106.425 106.244C106.399 106.205 106.359 106.147 106.327 106.106ZM91.9774 104.205C91.9774 104.205 93.6173 101.919 93.6173 101.842H101.253L101.356 101.945C101.356 101.945 101.638 102.305 102.996 104.231H92.003L91.9774 104.205Z" fill="#005BAC" stroke="#005BAC" stroke-width="0.322448"/>
<path d="M73.8351 106.858H68.0183V108.579H73.8351V106.858Z" fill="#005BAC" stroke="#005BAC" stroke-width="0.107019"/>
<path d="M73.8351 104.136H68.0183V105.857H73.8351V104.136Z" fill="#005BAC" stroke="#005BAC" stroke-width="0.107019"/>
<path d="M73.8351 101.412H71.8364V100.128H70.017V101.412H68.0183V103.133H73.8351V101.412Z" fill="#005BAC" stroke="#005BAC" stroke-width="0.107019"/>
<path d="M85.0072 114.153H82.0092L82.7266 112.252H83.4441C84.1616 112.098 84.6997 111.456 84.7254 110.711V109.068C84.7254 108.246 84.0847 107.552 83.2648 107.526H75.0137V112.355H76.5511L77.2686 114.256H74.988V115.72H83.8029C84.4947 115.72 85.1097 115.232 85.2635 114.538C85.2635 114.256 85.161 114.179 84.9816 114.179L85.0072 114.153ZM82.8291 109.145V110.429H76.6536V109.145H82.8291ZM78.3705 112.15H80.8304L80.1129 114.05H79.0111L78.3705 112.15Z" fill="#005BAC" stroke="#005BAC" stroke-width="0.107019"/>
<path d="M76.4744 106.576L76.7563 106.216H83.0087L83.2906 106.576H84.9305L83.3931 104.213H84.9305V102.492H82.2143L81.8556 101.953H84.9305V100.129H81.9325C81.0356 100.129 80.2925 100.874 80.2925 101.799C80.2925 102.107 80.395 102.415 80.5487 102.672L81.83 104.393H78.0119L79.2931 102.569C79.8056 101.824 79.6263 100.823 78.8831 100.309C78.6013 100.104 78.2682 100.001 77.935 100.026H74.937V101.85H78.0119L77.6532 102.389H74.937V104.11H76.4744L74.8345 106.576H76.4744Z" fill="#005BAC" stroke="#005BAC" stroke-width="0.107019"/>
<path d="M72.5538 109.786H68.0183V115.616H72.5538C73.4507 115.539 74.1682 114.794 74.1938 113.895V111.533C74.1938 110.634 73.4763 109.863 72.5538 109.812V109.786ZM69.7352 113.87V111.507H72.4513V113.87H69.7352Z" fill="#005BAC" stroke="#005BAC" stroke-width="0.107019"/>
</svg>
